<svg xmlns="http://www.w3.org/2000/svg" width="20" height="20" viewBox="0 0 20 20" fill="none">
  <path d="M9.98069 1.85484e-05C4.46902 0.0106679 -0.00907715 4.60093 1.38172e-05 10.2296C0.00750049 14.8277 2.99041 18.7129 7.08749 19.9847C7.30594 20.0525 7.52666 19.8866 7.52666 19.6535V17.5981C7.36436 17.6289 5.52331 17.9557 4.70579 17.1208C3.85017 16.247 4.21114 16.1378 3.64963 15.4688C3.08813 14.7998 2.79401 14.7316 2.70043 14.6223C2.60685 14.5131 2.4999 14.2674 3.00792 14.2401C3.00792 14.2401 3.95833 14.2641 4.82611 15.6327C5.73521 17.0662 7.53829 16.128 7.53829 16.128C7.59926 15.4569 7.89044 14.9029 8.19672 14.7737C4.31033 14.2653 3.64963 12.0501 3.64963 10.0349C3.64963 8.7502 4.04683 7.76992 4.66796 7.03088C4.20231 5.46038 4.75927 4.24609 4.75927 4.24609C6.09617 4.24609 7.46009 5.33491 7.46022 5.33491C8.33696 5.07892 9.2355 4.97925 9.99994 4.97925C10.7644 4.97925 11.6629 5.07878 12.5397 5.33491C12.5397 5.33491 13.9037 4.24609 15.2406 4.24609C15.2406 4.24609 15.7974 5.46038 15.3319 7.03088C15.9532 7.76992 16.3502 8.7502 16.3502 10.0349C16.3502 12.0501 15.6897 14.2653 11.8032 14.7737C12.1475 14.919 12.4732 15.6021 12.4732 16.3843V19.6293C12.4732 19.8748 12.706 20.0494 12.9358 19.9774C17.0261 18.6965 20 14.8091 20 10.2123C20.0001 4.5657 15.5125 -0.0106308 9.98069 1.85484e-05Z" fill="black"/>
</svg>