<svg xmlns="http://www.w3.org/2000/svg" width="103" height="102" viewBox="0 0 103 102" fill="none">
  <path d="M51.5 100.855C79.1144 100.855 101.5 78.502 101.5 50.9277C101.5 23.3534 79.1144 1 51.5 1C23.8856 1 1.49969 23.3534 1.49969 50.9277C1.49969 78.502 23.8856 100.855 51.5 100.855Z" fill="#FFCF36" stroke="black" stroke-width="2" stroke-miterlimit="10"/>
  <path d="M31.692 62.891C41.1321 62.891 48.7848 55.2494 48.7848 45.8231C48.7848 36.3967 41.1321 28.7551 31.692 28.7551C22.252 28.7551 14.5993 36.3967 14.5993 45.8231C14.5993 55.2494 22.252 62.891 31.692 62.891Z" fill="white" stroke="black" stroke-width="2" stroke-miterlimit="10"/>
  <path d="M31.6922 38.0069C34.2507 38.0069 36.3248 35.9358 36.3248 33.381C36.3248 30.8262 34.2507 28.7551 31.6922 28.7551C29.1336 28.7551 27.0595 30.8262 27.0595 33.381C27.0595 35.9358 29.1336 38.0069 31.6922 38.0069Z" fill="black" stroke="black" stroke-width="2" stroke-miterlimit="10"/>
  <path d="M72.5866 62.891C82.0267 62.891 89.6794 55.2494 89.6794 45.8231C89.6794 36.3967 82.0267 28.7551 72.5866 28.7551C63.1466 28.7551 55.4939 36.3967 55.4939 45.8231C55.4939 55.2494 63.1466 62.891 72.5866 62.891Z" fill="white" stroke="black" stroke-width="2" stroke-miterlimit="10"/>
  <path d="M72.5867 38.0069C75.1452 38.0069 77.2193 35.9358 77.2193 33.381C77.2193 30.8262 75.1452 28.7551 72.5867 28.7551C70.0282 28.7551 67.9541 30.8262 67.9541 33.381C67.9541 35.9358 70.0282 38.0069 72.5867 38.0069Z" fill="black" stroke="black" stroke-width="2" stroke-miterlimit="10"/>
  <path d="M51.9997 76H72.7666" stroke="black" stroke-width="1.79" stroke-miterlimit="10"/>
</svg>