<svg xmlns="http://www.w3.org/2000/svg" width="145" height="127" viewBox="0 0 145 127" fill="none">
  <rect x="1.82382" y="47.3644" width="12.6842" height="15.621" transform="rotate(-24.4037 1.82382 47.3644)" fill="#D9D9D9" stroke="black" stroke-width="2"/>
  <rect x="1.82382" y="104.633" width="12.6842" height="15.621" transform="rotate(-24.4037 1.82382 104.633)" fill="#FFCF36" stroke="black" stroke-width="2"/>
  <rect x="125.171" y="79.6696" width="12.6842" height="15.621" transform="rotate(-24.4037 125.171 79.6696)" fill="#53926D" stroke="black" stroke-width="2"/>
  <rect x="111.286" y="43.5991" width="12.6842" height="15.621" transform="rotate(25.255 111.286 43.5991)" fill="#FC4B3B" stroke="black" stroke-width="2"/>
  <rect x="108.722" y="100.918" width="12.6842" height="15.621" transform="rotate(-1.59917 108.722 100.918)" fill="#D9D9D9" stroke="black" stroke-width="2"/>
  <rect x="72.2731" y="14.2661" width="12.6842" height="15.621" transform="rotate(-20.6967 72.2731 14.2661)" fill="#4DC4CF" stroke="black" stroke-width="2"/>
  <path d="M69.5154 125.998C94.656 125.998 115.036 105.647 115.036 80.5433C115.036 55.4392 94.656 35.0884 69.5154 35.0884C44.3748 35.0884 23.9944 55.4392 23.9944 80.5433C23.9944 105.647 44.3748 125.998 69.5154 125.998Z" fill="#FFD653" stroke="black" stroke-width="2" stroke-miterlimit="10"/>
  <path d="M98.4573 93.0337C91.9477 126.29 49.8065 127.452 40.5743 93.1789L98.4573 93.0337Z" fill="#FC4B3B" stroke="black" stroke-width="1.8" stroke-miterlimit="10"/>
  <path d="M96.459 99.8592C97.2996 97.7564 97.9774 95.4851 98.4573 93.0337L40.5743 93.1789C41.2229 95.5809 42.0345 97.8028 42.9827 99.8592H96.459Z" fill="#F5F3F3" stroke="black" stroke-width="1.8" stroke-miterlimit="10"/>
  <path d="M92.2001 82.0862C94.2565 83.0215 96.1239 84.1136 97.7499 85.2899C100.976 82.4435 103.012 78.2814 103.012 73.6458C103.012 65.0631 96.0454 58.1069 87.4502 58.1069C78.855 58.1069 71.8887 65.0631 71.8887 73.6458C71.8887 76.5532 72.5303 77.3866 73.9207 79.7131C79.0601 78.9789 84.4891 78.5776 92.1972 82.0862H92.2001Z" fill="white" stroke="black" stroke-width="2" stroke-miterlimit="10"/>
  <path d="M45.8091 82.211C43.7526 83.1462 41.8853 84.2383 40.2593 85.4146C37.0336 82.5682 34.9975 78.4061 34.9975 73.7706C34.9975 65.1879 41.9638 58.2317 50.559 58.2317C59.1542 58.2317 66.1205 65.1879 66.1205 73.7706C66.1205 76.678 65.0321 77.3866 63.6417 79.7131C57.768 79.7131 53.52 78.7024 45.812 82.211H45.8091Z" fill="white" stroke="black" stroke-width="2" stroke-miterlimit="10"/>
  <path d="M53.2267 78.9457C55.556 78.9457 57.4443 77.0601 57.4443 74.7342C57.4443 72.4082 55.556 70.5227 53.2267 70.5227C50.8974 70.5227 49.0091 72.4082 49.0091 74.7342C49.0091 77.0601 50.8974 78.9457 53.2267 78.9457Z" fill="black" stroke="black" stroke-width="2" stroke-miterlimit="10"/>
  <path d="M84.6401 78.9457C86.9694 78.9457 88.8577 77.0601 88.8577 74.7342C88.8577 72.4082 86.9694 70.5227 84.6401 70.5227C82.3107 70.5227 80.4225 72.4082 80.4225 74.7342C80.4225 77.0601 82.3107 78.9457 84.6401 78.9457Z" fill="black" stroke="black" stroke-width="2" stroke-miterlimit="10"/>
  <rect x="-1.32382" y="0.497493" width="12.6842" height="15.621" transform="matrix(-0.910657 -0.413164 -0.413164 0.910657 32.0445 74.2646)" fill="#542234" stroke="black" stroke-width="2"/>
  <path d="M40.3776 45.9933L46.0308 8.82446L72.6573 35.3671L40.3776 45.9933Z" fill="#53926D" stroke="black" stroke-width="2"/>
  <path fill-rule="evenodd" clip-rule="evenodd" d="M42.4732 25.5636L43.4846 18.914L54.072 15.4286L58.8357 20.1772L42.4732 25.5636Z" fill="white"/>
  <path fill-rule="evenodd" clip-rule="evenodd" d="M40.6192 37.7546L41.6305 31.1049L62.8055 24.1342L67.5691 28.8828L40.6192 37.7546Z" fill="white"/>
  <path d="M40.3776 45.9933L46.0308 8.82446L72.6573 35.3671L40.3776 45.9933Z" stroke="black" stroke-width="2"/>
</svg>