<svg xmlns="http://www.w3.org/2000/svg" width="81" height="103" viewBox="0 0 81 103" fill="none">
  <path d="M40.4657 1.16128C40.4773 1.15493 40.4887 1.14867 40.5 1.14251C40.5113 1.14867 40.5227 1.15493 40.5343 1.16128C40.8708 1.34502 41.3586 1.60829 41.9672 1.9281C43.1839 2.56746 44.8857 3.43414 46.8272 4.34371C50.6836 6.15036 55.5813 8.17254 59.5066 8.87028C63.4538 9.5719 68.4981 9.27308 72.4215 8.83294C74.3134 8.62071 75.9692 8.37257 77.1526 8.17741C77.4771 8.12391 77.7662 8.07436 78.0152 8.03057C78.0732 8.4738 78.1462 9.05375 78.2286 9.75683C78.436 11.5281 78.7026 14.0801 78.938 17.1956C79.5471 25.2544 79.9451 37.0508 78.5848 48.8476C77.2211 60.674 74.106 72.3493 67.804 80.2928C62.5295 86.9411 55.6024 92.3596 49.9642 96.1264C47.1501 98.0063 44.6687 99.4673 42.8928 100.457C42.005 100.952 41.2942 101.329 40.807 101.581C40.692 101.641 40.5894 101.693 40.5 101.739C40.4106 101.693 40.308 101.641 40.193 101.581C39.7058 101.329 38.995 100.952 38.1072 100.457C36.3313 99.4673 33.8499 98.0063 31.0358 96.1264C25.3976 92.3596 18.4705 86.9411 13.196 80.2928C6.89401 72.3493 3.77893 60.674 2.41522 48.8476C1.05493 37.0508 1.45293 25.2544 2.06195 17.1956C2.29739 14.0801 2.56397 11.5281 2.77143 9.75683C2.85378 9.05375 2.92679 8.4738 2.98483 8.03057C3.23381 8.07436 3.52294 8.12391 3.84736 8.17741C5.03077 8.37257 6.68659 8.62071 8.57849 8.83294C12.5019 9.27308 17.5462 9.5719 21.4934 8.87028C25.4187 8.17254 30.3165 6.15036 34.1728 4.34371C36.1143 3.43414 37.8161 2.56746 39.0328 1.9281C39.6414 1.60829 40.1292 1.34502 40.4657 1.16128Z" fill="#F5F3F3" stroke="black" stroke-width="2"/>
  <path d="M40.4657 1.16128C40.4773 1.15493 40.4887 1.14867 40.5 1.14251C40.5113 1.14867 40.5227 1.15493 40.5343 1.16128C40.8708 1.34502 41.3586 1.60829 41.9672 1.9281C43.1839 2.56746 44.8857 3.43414 46.8272 4.34371C50.6836 6.15036 55.5813 8.17254 59.5066 8.87028C63.4538 9.5719 68.4981 9.27308 72.4215 8.83294C74.3134 8.62071 75.9692 8.37257 77.1526 8.17741C77.4771 8.12391 77.7662 8.07436 78.0152 8.03057C78.0732 8.4738 78.1462 9.05375 78.2286 9.75683C78.436 11.5281 78.7026 14.0801 78.938 17.1956C79.5471 25.2544 79.9451 37.0508 78.5848 48.8476C77.2211 60.674 74.106 72.3493 67.804 80.2928C62.5295 86.9411 55.6024 92.3596 49.9642 96.1264C47.1501 98.0063 44.6687 99.4673 42.8928 100.457C42.005 100.952 41.2942 101.329 40.807 101.581C40.692 101.641 40.5894 101.693 40.5 101.739C40.4106 101.693 40.308 101.641 40.193 101.581C39.7058 101.329 38.995 100.952 38.1072 100.457C36.3313 99.4673 33.8499 98.0063 31.0358 96.1264C25.3976 92.3596 18.4705 86.9411 13.196 80.2928C6.89401 72.3493 3.77893 60.674 2.41522 48.8476C1.05493 37.0508 1.45293 25.2544 2.06195 17.1956C2.29739 14.0801 2.56397 11.5281 2.77143 9.75683C2.85378 9.05375 2.92679 8.4738 2.98483 8.03057C3.23381 8.07436 3.52294 8.12391 3.84736 8.17741C5.03077 8.37257 6.68659 8.62071 8.57849 8.83294C12.5019 9.27308 17.5462 9.5719 21.4934 8.87028C25.4187 8.17254 30.3165 6.15036 34.1728 4.34371C36.1143 3.43414 37.8161 2.56746 39.0328 1.9281C39.6414 1.60829 40.1292 1.34502 40.4657 1.16128ZM70.7236 18.3303L70.6511 17.3361L69.6567 17.4054C66.0678 17.6554 61.8359 17.6996 58.06 17.0284C52.9804 16.1255 47.2363 13.6833 43.3197 11.8484C42.479 11.4546 41.6814 11.0688 40.9434 10.7038L40.5 10.4844L40.0566 10.7038C39.3186 11.0688 38.521 11.4546 37.6803 11.8484C33.7637 13.6833 28.0196 16.1255 22.94 17.0284C19.1641 17.6996 14.9322 17.6554 11.3433 17.4054L10.3489 17.3361L10.2764 18.3303C9.9369 22.9887 9.67996 28.8636 9.81046 35.2012C9.9641 42.6628 10.6513 50.5461 12.2747 57.7427C13.9166 65.0215 16.3816 70.9864 19.6764 75.1393C24.1979 80.8386 30.3407 85.701 35.6294 89.2342C37.2282 90.3023 38.7093 91.2228 39.9893 91.9832L40.5 92.2865L41.0107 91.9832C42.2907 91.2228 43.7718 90.3023 45.3706 89.2342C50.6593 85.701 56.8021 80.8386 61.3236 75.1393C64.6184 70.9864 67.0834 65.0215 68.7253 57.7427C70.3487 50.5461 71.0359 42.6628 71.1895 35.2012C71.32 28.8636 71.0631 22.9887 70.7236 18.3303Z" fill="#FC4B3B" stroke="black" stroke-width="2"/>
  <mask id="path-3-inside-1_23_99" fill="white">
    <path fill-rule="evenodd" clip-rule="evenodd" d="M34.0721 34.6588C34.0721 31.6923 36.4769 29.2874 39.4435 29.2874C42.4101 29.2874 44.8149 31.6923 44.8149 34.6588C44.8149 37.6254 42.4101 40.0303 39.4435 40.0303C36.4769 40.0303 34.0721 37.6254 34.0721 34.6588ZM39.4435 23.5731C33.321 23.5731 28.3578 28.5364 28.3578 34.6588C28.3578 39.6904 31.7099 43.939 36.3027 45.2933V70.1262C36.3027 71.7042 37.5819 72.9834 39.1599 72.9834C40.7378 72.9834 42.017 71.7042 42.017 70.1262V66.7966H49.1205C50.6984 66.7966 51.9776 65.5174 51.9776 63.9395C51.9776 62.3615 50.6984 61.0823 49.1205 61.0823H42.017V59.9674H49.1205C50.6984 59.9674 51.9776 58.6882 51.9776 57.1103C51.9776 55.5323 50.6984 54.2531 49.1205 54.2531H42.017V45.4443C46.8985 44.2839 50.5292 39.8954 50.5292 34.6588C50.5292 28.5364 45.566 23.5731 39.4435 23.5731Z"/>
  </mask>
  <path fill-rule="evenodd" clip-rule="evenodd" d="M34.0721 34.6588C34.0721 31.6923 36.4769 29.2874 39.4435 29.2874C42.4101 29.2874 44.8149 31.6923 44.8149 34.6588C44.8149 37.6254 42.4101 40.0303 39.4435 40.0303C36.4769 40.0303 34.0721 37.6254 34.0721 34.6588ZM39.4435 23.5731C33.321 23.5731 28.3578 28.5364 28.3578 34.6588C28.3578 39.6904 31.7099 43.939 36.3027 45.2933V70.1262C36.3027 71.7042 37.5819 72.9834 39.1599 72.9834C40.7378 72.9834 42.017 71.7042 42.017 70.1262V66.7966H49.1205C50.6984 66.7966 51.9776 65.5174 51.9776 63.9395C51.9776 62.3615 50.6984 61.0823 49.1205 61.0823H42.017V59.9674H49.1205C50.6984 59.9674 51.9776 58.6882 51.9776 57.1103C51.9776 55.5323 50.6984 54.2531 49.1205 54.2531H42.017V45.4443C46.8985 44.2839 50.5292 39.8954 50.5292 34.6588C50.5292 28.5364 45.566 23.5731 39.4435 23.5731Z" fill="#53926D"/>
  <path d="M36.3027 45.2933H38.3027C38.3027 44.4066 37.7189 43.6258 36.8684 43.375L36.3027 45.2933ZM42.017 66.7966V64.7966C40.9124 64.7966 40.017 65.692 40.017 66.7966H42.017ZM42.017 61.0823H40.017C40.017 62.1869 40.9124 63.0823 42.017 63.0823V61.0823ZM42.017 59.9674V57.9674C40.9124 57.9674 40.017 58.8628 40.017 59.9674H42.017ZM42.017 54.2531H40.017C40.017 55.3577 40.9124 56.2531 42.017 56.2531V54.2531ZM42.017 45.4443L41.5545 43.4985C40.6532 43.7128 40.017 44.5179 40.017 45.4443H42.017ZM39.4435 27.2874C35.3724 27.2874 32.0721 30.5877 32.0721 34.6588H36.0721C36.0721 32.7968 37.5815 31.2874 39.4435 31.2874V27.2874ZM46.8149 34.6588C46.8149 30.5877 43.5146 27.2874 39.4435 27.2874V31.2874C41.3055 31.2874 42.8149 32.7968 42.8149 34.6588H46.8149ZM39.4435 42.0303C43.5146 42.0303 46.8149 38.73 46.8149 34.6588H42.8149C42.8149 36.5208 41.3055 38.0303 39.4435 38.0303V42.0303ZM32.0721 34.6588C32.0721 38.73 35.3724 42.0303 39.4435 42.0303V38.0303C37.5815 38.0303 36.0721 36.5208 36.0721 34.6588H32.0721ZM30.3578 34.6588C30.3578 29.6409 34.4256 25.5731 39.4435 25.5731V21.5731C32.2165 21.5731 26.3578 27.4318 26.3578 34.6588H30.3578ZM36.8684 43.375C33.1028 42.2646 30.3578 38.7797 30.3578 34.6588H26.3578C26.3578 40.6011 30.317 45.6134 35.7371 47.2117L36.8684 43.375ZM38.3027 70.1262V45.2933H34.3027V70.1262H38.3027ZM39.1599 70.9834C38.6865 70.9834 38.3027 70.5996 38.3027 70.1262H34.3027C34.3027 72.8087 36.4773 74.9834 39.1599 74.9834V70.9834ZM40.017 70.1262C40.017 70.5996 39.6333 70.9834 39.1599 70.9834V74.9834C41.8424 74.9834 44.017 72.8087 44.017 70.1262H40.017ZM40.017 66.7966V70.1262H44.017V66.7966H40.017ZM49.1205 64.7966H42.017V68.7966H49.1205V64.7966ZM49.9776 63.9395C49.9776 64.4129 49.5938 64.7966 49.1205 64.7966V68.7966C51.803 68.7966 53.9776 66.622 53.9776 63.9395H49.9776ZM49.1205 63.0823C49.5938 63.0823 49.9776 63.4661 49.9776 63.9395H53.9776C53.9776 61.2569 51.803 59.0823 49.1205 59.0823V63.0823ZM42.017 63.0823H49.1205V59.0823H42.017V63.0823ZM40.017 59.9674V61.0823H44.017V59.9674H40.017ZM49.1205 57.9674H42.017V61.9674H49.1205V57.9674ZM49.9776 57.1103C49.9776 57.5837 49.5938 57.9674 49.1205 57.9674V61.9674C51.803 61.9674 53.9776 59.7928 53.9776 57.1103H49.9776ZM49.1205 56.2531C49.5938 56.2531 49.9776 56.6369 49.9776 57.1103H53.9776C53.9776 54.4277 51.803 52.2531 49.1205 52.2531V56.2531ZM42.017 56.2531H49.1205V52.2531H42.017V56.2531ZM40.017 45.4443V54.2531H44.017V45.4443H40.017ZM48.5292 34.6588C48.5292 38.948 45.5552 42.5475 41.5545 43.4985L42.4796 47.3901C48.2417 46.0203 52.5292 40.8427 52.5292 34.6588H48.5292ZM39.4435 25.5731C44.4614 25.5731 48.5292 29.6409 48.5292 34.6588H52.5292C52.5292 27.4318 46.6705 21.5731 39.4435 21.5731V25.5731Z" fill="black" mask="url(#path-3-inside-1_23_99)"/>
</svg>