<svg width="652" height="465" viewBox="0 0 652 465" fill="none" xmlns="http://www.w3.org/2000/svg">
<rect x="45" y="1" width="562" height="384" rx="9" fill="#D9D9D9" stroke="black" stroke-width="2"/>
<path d="M52.8332 387H599.167C601.872 387 604.434 388.217 606.143 390.314L649.895 444H2.10498L45.8566 390.314C47.5658 388.217 50.1277 387 52.8332 387Z" fill="#D9D9D9" stroke="black" stroke-width="2"/>
<mask id="path-3-inside-1_23_92" fill="white">
<path d="M0 445H652V455C652 460.523 647.523 465 642 465H9.99999C4.47714 465 0 460.523 0 455V445Z"/>
</mask>
<path d="M0 445H652V455C652 460.523 647.523 465 642 465H9.99999C4.47714 465 0 460.523 0 455V445Z" fill="#D9D9D9"/>
<path d="M0 445H652H0ZM654 455C654 461.627 648.627 467 642 467H10C3.37258 467 -2 461.627 -2 455H2C2 459.418 5.58172 463 10 463H642C646.418 463 650 459.418 650 455H654ZM10 467C3.37258 467 -2 461.627 -2 455V445H2V455C2 459.418 5.58172 463 10 463V467ZM654 445V455C654 461.627 648.627 467 642 467V463C646.418 463 650 459.418 650 455V445H654Z" fill="black" mask="url(#path-3-inside-1_23_92)"/>
<path d="M216.718 444L225.234 429H426.766L435.282 444H216.718Z" fill="#D9D9D9" stroke="black" stroke-width="2"/>
<path d="M72.8968 422L93.4403 392H552.56L573.103 422H72.8968Z" fill="#D9D9D9" stroke="black" stroke-width="2"/>
</svg>
