<svg width="278" height="527" viewBox="0 0 278 527" fill="none" xmlns="http://www.w3.org/2000/svg">
<rect x="1" y="1" width="105" height="395" fill="#542234" stroke="black" stroke-width="2"/>
<path d="M1 524.211V120.381L106 2.62407V396.641L1 524.211Z" fill="#542234" stroke="black" stroke-width="2"/>
<mask id="path-3-inside-1_23_114" fill="white">
<path fill-rule="evenodd" clip-rule="evenodd" d="M256 271H52.6489L37 289L242 482L256 460V271.44L256.351 271H256Z"/>
</mask>
<path fill-rule="evenodd" clip-rule="evenodd" d="M256 271H52.6489L37 289L242 482L256 460V271.44L256.351 271H256Z" fill="#F4E598"/>
<path d="M52.6489 271V269H51.7375L51.1395 269.687L52.6489 271ZM37 289L35.4907 287.687L34.2294 289.138L35.629 290.456L37 289ZM242 482L240.629 483.456L242.389 485.113L243.687 483.073L242 482ZM256 460L257.687 461.073L258 460.582V460H256ZM256 271.44L254.436 270.193L254 270.74V271.44H256ZM256.351 271L257.915 272.246L260.504 269H256.351V271ZM52.6489 273H256V269H52.6489V273ZM38.5093 290.312L54.1582 272.312L51.1395 269.687L35.4907 287.687L38.5093 290.312ZM243.371 480.543L38.371 287.543L35.629 290.456L240.629 483.456L243.371 480.543ZM254.313 458.926L240.313 480.926L243.687 483.073L257.687 461.073L254.313 458.926ZM254 271.44V460H258V271.44H254ZM254.787 269.753L254.436 270.193L257.564 272.687L257.915 272.246L254.787 269.753ZM256 273H256.351V269H256V273Z" fill="black" mask="url(#path-3-inside-1_23_114)"/>
<path d="M224 273L224 294" stroke="black" stroke-width="2"/>
<path d="M180.999 149.575L189.349 326.85L167.374 327.885L159.024 150.629C159.217 150.495 159.468 150.323 159.768 150.123C160.512 149.628 161.55 148.967 162.73 148.3C165.143 146.936 167.954 145.661 170.033 145.563C172.104 145.466 174.902 146.47 177.309 147.604C178.485 148.158 179.521 148.72 180.262 149.144C180.559 149.314 180.808 149.461 180.999 149.575Z" fill="#4DC4CF" stroke="black" stroke-width="2"/>
<path d="M274.538 198.757L195.01 357.438L175.342 347.58L254.839 188.962C255.088 188.949 255.412 188.933 255.795 188.919C256.739 188.885 258.04 188.86 259.468 188.9C260.897 188.941 262.438 189.045 263.867 189.264C265.309 189.485 266.572 189.814 267.483 190.271C269.329 191.196 271.139 193.345 272.538 195.413C273.221 196.423 273.779 197.372 274.166 198.069C274.318 198.342 274.443 198.575 274.538 198.757Z" fill="#542234" stroke="black" stroke-width="2"/>
<rect x="-1.05128" y="0.945944" width="54.5233" height="177" rx="19" transform="matrix(-0.998612 -0.0526679 -0.0526679 0.998612 113.821 186.923)" fill="#FC4B3B" stroke="black" stroke-width="2"/>
<path d="M56.5003 259.5L105.5 262.5" stroke="black" stroke-width="2"/>
<rect x="69.2144" y="127.568" width="66.7772" height="224.245" transform="rotate(-14.1758 69.2144 127.568)" fill="white" stroke="black" stroke-width="2"/>
<path d="M114.019 144.098L140.682 137.363" stroke="black" stroke-width="2"/>
<path d="M118.917 163.489L145.58 156.754" stroke="black" stroke-width="2"/>
<path d="M123.815 182.88L150.478 176.145" stroke="black" stroke-width="2"/>
<path d="M128.713 202.271L155.376 195.536" stroke="black" stroke-width="2"/>
<path d="M133.611 221.662L160.274 214.927" stroke="black" stroke-width="2"/>
<path d="M138.509 241.053L165.172 234.318" stroke="black" stroke-width="2"/>
<path d="M143.407 260.444L170.07 253.709" stroke="black" stroke-width="2"/>
<path d="M148.305 279.834L174.968 273.1" stroke="black" stroke-width="2"/>
<path d="M153.203 299.226L179.866 292.491" stroke="black" stroke-width="2"/>
<mask id="path-20-inside-2_23_114" fill="white">
<path d="M37 289H242V482H37V289Z"/>
</mask>
<path d="M37 289H242V482H37V289Z" fill="#F4E598"/>
<path d="M37 289V287H35V289H37ZM242 289H244V287H242V289ZM242 482V484H244V482H242ZM37 482H35V484H37V482ZM37 291H242V287H37V291ZM240 289V482H244V289H240ZM242 480H37V484H242V480ZM39 482V289H35V482H39Z" fill="black" mask="url(#path-20-inside-2_23_114)"/>
<path d="M241 290.5L255 272.5" stroke="black" stroke-width="2"/>
</svg>
