<svg width="391" height="700" viewBox="0 0 391 700" fill="none" xmlns="http://www.w3.org/2000/svg">
<path d="M216.096 163.535C204.621 150.972 192.196 142.237 184.098 137.911L188.674 129.018C197.781 133.86 211.178 143.323 223.479 156.791C236.015 170.515 247.633 188.643 252.205 210.549L242.396 212.492C238.275 192.867 227.788 176.335 216.096 163.535Z" fill="#53926D" stroke="black" stroke-width="2"/>
<path d="M245.317 104.695C253.957 100.293 262.619 101.706 269.761 105.896L265.161 117.635C260.122 114.847 254.443 114.178 248.932 116.985C243.069 119.972 236.593 127.313 231.119 142.721C220.071 173.81 213.994 235.333 224.503 348.374L214.509 349.856C203.972 236.441 209.7 171.796 221.997 137.191C228.228 119.654 236.361 109.258 245.317 104.695Z" fill="#53926D" stroke="black" stroke-width="2"/>
<path d="M219.26 155.007C211.701 133.942 203.551 118.522 196.029 107.671C188.91 97.3996 182.321 91.1757 177.292 88.1628L182.734 76.4066C196.685 84.6161 215.173 107.768 230.382 150.151C245.984 193.632 258.441 258.136 258.994 349.922L247.033 349.994C246.486 259.433 234.193 196.622 219.26 155.007Z" fill="#53926D" stroke="black" stroke-width="2"/>
<path d="M313.697 262.794L313.697 262.793L313.697 262.793L313.697 262.793L314.152 262.393L314.007 261.806L314.007 261.805L314.007 261.805L314.007 261.805L314.006 261.8L313.999 261.772C313.993 261.746 313.984 261.705 313.972 261.65C313.949 261.54 313.914 261.374 313.874 261.157C313.794 260.722 313.692 260.084 313.604 259.285C313.429 257.684 313.315 255.45 313.563 252.918C314.058 247.854 315.987 241.668 321.686 236.933C325.513 233.753 329.61 232.538 333.854 232.735C338.128 232.934 342.607 234.57 347.134 237.197C356.2 242.457 365.213 251.543 372.784 260.226C378.138 266.366 383.775 274.215 388.083 280.546C390.235 283.708 392.05 286.485 393.327 288.471C393.878 289.326 394.328 290.034 394.662 290.563C394.065 290.754 393.264 291.007 392.29 291.308C390.033 292.005 386.853 292.957 383.167 293.978C375.784 296.02 366.407 298.323 358.341 299.398C347.208 300.882 333.965 302.011 323.335 300.203C318.023 299.3 313.455 297.678 310.136 295.08C306.852 292.51 304.74 288.949 304.359 284.006C303.894 277.976 306.197 272.685 308.672 268.858C309.906 266.951 311.171 265.426 312.126 264.38C312.603 263.858 313.001 263.457 313.277 263.188C313.415 263.054 313.523 262.953 313.595 262.886C313.606 262.876 313.616 262.867 313.625 262.858C313.646 262.839 313.663 262.824 313.675 262.813L313.693 262.797L313.697 262.794Z" fill="#53926D" stroke="black" stroke-width="2"/>
<path d="M313.304 261.984C321.29 260.708 341.86 261.662 360.25 275.69" stroke="black" stroke-width="2"/>
<path d="M195.908 224.016L195.908 224.016L195.908 224.016L195.331 223.831L195.228 223.234L195.228 223.234L195.228 223.234L195.228 223.232L195.225 223.219L195.215 223.161C195.205 223.108 195.19 223.028 195.168 222.921C195.125 222.709 195.058 222.392 194.963 221.983C194.772 221.166 194.467 219.983 194.016 218.536C193.113 215.64 191.625 211.697 189.288 207.509C184.615 199.134 176.583 189.842 163.082 185.933C154.001 183.304 145.905 184.301 138.641 187.882C131.349 191.477 124.844 197.701 119.043 205.598C107.433 221.404 98.81 243.673 92.3694 264.089C87.803 278.563 84.0322 296.146 81.4012 310.13C80.0865 317.117 79.0579 323.198 78.3581 327.532C78.0081 329.698 77.7405 331.428 77.5603 332.615C77.529 332.822 77.5004 333.011 77.4744 333.184C77.6491 333.167 77.841 333.148 78.0495 333.127C79.2457 333.005 80.9883 332.823 83.1713 332.578C87.5377 332.087 93.6649 331.345 100.706 330.342C114.798 328.334 132.512 325.282 147.094 321.104C167.147 315.359 190.633 307.416 207.498 296.369C215.928 290.847 222.625 284.6 226.439 277.539C230.231 270.518 231.203 262.639 228.101 253.714C224.328 242.863 216.314 235.437 209.174 230.707C205.609 228.345 202.282 226.668 199.848 225.583C198.631 225.041 197.639 224.647 196.955 224.389C196.613 224.261 196.347 224.166 196.17 224.104C196.132 224.092 196.099 224.08 196.07 224.07C196.029 224.056 195.995 224.045 195.969 224.036L195.921 224.02L195.91 224.017L195.908 224.016Z" fill="#53926D" stroke="black" stroke-width="2"/>
<path d="M195.714 223.162C181.175 226.922 146.878 243.822 126.002 281.352" stroke="black" stroke-width="2"/>
<path d="M272.73 127.514L272.73 127.514L272.73 127.514L273.157 127.085L272.975 126.507L272.975 126.507L272.974 126.507L272.974 126.505L272.97 126.492L272.953 126.436C272.937 126.385 272.914 126.306 272.884 126.202C272.825 125.993 272.739 125.681 272.636 125.274C272.43 124.461 272.157 123.27 271.894 121.777C271.366 118.79 270.877 114.603 271.03 109.811C271.335 100.225 274.203 88.2819 284.4 78.6094C291.259 72.1035 298.909 69.2713 307.007 69.1161C315.135 68.9604 323.771 71.5024 332.551 75.8534C350.123 84.5615 368.01 100.384 383.107 115.561C393.811 126.322 405.235 140.209 413.995 151.423C418.372 157.026 422.078 161.955 424.69 165.483C425.996 167.247 427.028 168.661 427.733 169.633C427.855 169.802 427.968 169.957 428.071 170.099C427.907 170.164 427.728 170.235 427.533 170.312C426.415 170.753 424.783 171.392 422.731 172.176C418.627 173.746 412.844 175.901 406.128 178.243C392.688 182.931 375.551 188.355 360.679 191.341C340.228 195.447 315.717 199.177 295.662 197.109C285.638 196.075 276.82 193.601 270.19 189.08C263.597 184.585 259.114 178.032 257.771 168.679C256.139 157.307 259.848 147.031 264.018 139.549C266.1 135.815 268.286 132.797 269.95 130.715C270.781 129.675 271.481 128.869 271.971 128.326C272.216 128.055 272.408 127.849 272.538 127.713C272.565 127.684 272.589 127.659 272.611 127.636C272.641 127.605 272.666 127.579 272.685 127.56L272.72 127.524L272.728 127.515L272.73 127.514Z" fill="#53926D" stroke="black" stroke-width="2"/>
<path d="M272.51 126.667C287.152 123.329 325.38 122.591 361.159 146.342" stroke="black" stroke-width="2"/>
<path d="M182.175 92.0609L182.176 92.0607L182.176 92.0604L182.176 92.0602L182.429 91.5104L183.033 91.4799L183.033 91.4799L183.033 91.4799L183.034 91.4798L183.039 91.4796L183.067 91.4778C183.094 91.4761 183.136 91.4732 183.192 91.4689C183.304 91.4601 183.473 91.4451 183.692 91.4211C184.132 91.3729 184.773 91.2881 185.563 91.1426C187.147 90.8513 189.32 90.3185 191.674 89.3547C196.383 87.4269 201.754 83.8036 204.655 76.9849C206.603 72.407 206.59 68.1329 205.183 64.1241C203.766 60.087 200.913 56.2665 197.098 52.6837C189.457 45.5088 178.166 39.4832 167.675 34.7226C160.256 31.3564 151.12 28.2097 143.819 25.9001C140.172 24.7467 136.992 23.8046 134.723 23.1509C133.746 22.8694 132.938 22.6415 132.335 22.4733C132.324 23.0995 132.311 23.9401 132.303 24.9586C132.283 27.3214 132.283 30.6408 132.364 34.4649C132.526 42.1231 133.012 51.7665 134.297 59.8019C136.071 70.8917 138.791 83.9022 143.573 93.5663C145.963 98.3955 148.828 102.305 152.269 104.739C155.674 107.147 159.692 108.148 164.536 107.094C170.446 105.809 174.853 102.084 177.808 98.6145C179.281 96.885 180.378 95.2361 181.106 94.0215C181.47 93.4148 181.74 92.9181 181.918 92.5761C182.007 92.4051 182.073 92.273 182.116 92.1852C182.122 92.1717 182.129 92.1593 182.134 92.1479C182.146 92.1223 182.156 92.1021 182.163 92.0876L182.173 92.0651L182.175 92.0609Z" fill="#53926D" stroke="black" stroke-width="2"/>
<path d="M183.063 92.205C181.994 84.1882 175.176 64.7575 156.46 51.1684" stroke="black" stroke-width="2"/>
<path d="M184.385 133.052L184.385 133.052L184.385 133.052L184.385 133.052L184.462 132.451L185.029 132.241L185.03 132.241L185.03 132.241L185.03 132.241L185.035 132.239L185.062 132.229C185.087 132.219 185.126 132.204 185.178 132.183C185.282 132.141 185.439 132.076 185.641 131.988C186.046 131.81 186.632 131.537 187.343 131.162C188.766 130.41 190.68 129.251 192.637 127.626C196.553 124.377 200.593 119.311 201.319 111.937C201.806 106.986 200.515 102.911 197.972 99.508C195.411 96.0804 191.545 93.2893 186.832 91.0135C177.393 86.4559 164.816 84.0876 153.381 82.687C145.295 81.6967 135.636 81.43 127.978 81.4128C124.153 81.4042 120.836 81.4578 118.476 81.5135C117.459 81.5375 116.62 81.5619 115.994 81.5819C116.171 82.1828 116.411 82.9885 116.708 83.9629C117.396 86.2233 118.39 89.3903 119.613 93.0146C122.061 100.273 125.412 109.328 129.044 116.61C134.058 126.66 140.549 138.259 148.005 146.048C151.731 149.94 155.635 152.812 159.648 154.104C163.617 155.382 167.75 155.134 172.057 152.678C177.311 149.682 180.4 144.808 182.181 140.613C183.068 138.522 183.622 136.62 183.952 135.243C184.117 134.555 184.227 134 184.294 133.621C184.328 133.431 184.351 133.285 184.366 133.189C184.368 133.174 184.37 133.16 184.372 133.148C184.376 133.12 184.379 133.097 184.381 133.082L184.385 133.057L184.385 133.052Z" fill="#53926D" stroke="black" stroke-width="2"/>
<path d="M185.276 132.924C181.855 125.595 169.531 109.098 147.605 101.736" stroke="black" stroke-width="2"/>
<path d="M264.671 107.293L264.671 107.292L264.673 106.687L264.138 106.405L264.138 106.404L264.137 106.404L264.137 106.404L264.129 106.4L264.093 106.38C264.061 106.363 264.01 106.335 263.943 106.297C263.808 106.221 263.608 106.106 263.351 105.951C262.837 105.64 262.097 105.17 261.209 104.541C259.432 103.281 257.068 101.389 254.726 98.8647C250.043 93.8146 245.494 86.2842 245.818 76.2242C246.036 69.4632 248.501 64.1849 252.539 60.0385C256.597 55.8706 262.285 52.8071 268.985 50.5905C282.4 46.1531 299.6 45.1968 315.07 45.3282C326.026 45.4212 338.944 46.7539 349.144 48.0678C354.239 48.7242 358.648 49.3747 361.782 49.8611C363.349 50.1043 364.597 50.3064 365.452 50.4476C365.472 50.4509 365.492 50.4541 365.511 50.4573C365.503 50.4757 365.495 50.4943 365.486 50.5131C365.136 51.3077 364.622 52.4641 363.966 53.9094C362.654 56.8 360.777 60.8448 358.516 65.459C353.989 74.6964 347.941 86.1809 341.822 95.2584C333.395 107.761 322.707 122.105 311.38 131.205C305.719 135.753 299.97 138.932 294.326 139.966C288.728 140.991 283.172 139.918 277.791 135.839C271.239 130.872 267.947 123.767 266.298 117.833C265.476 114.873 265.069 112.226 264.867 110.321C264.767 109.37 264.718 108.605 264.694 108.082C264.682 107.821 264.676 107.619 264.674 107.486C264.672 107.419 264.672 107.369 264.671 107.336L264.671 107.301L264.671 107.293L264.671 107.293Z" fill="#53926D" stroke="black" stroke-width="2"/>
<path d="M263.851 106.968C269.683 97.8107 288.964 78.0038 319.43 72.0324" stroke="black" stroke-width="2"/>
<mask id="path-16-inside-1_23_51" fill="white">
<path fill-rule="evenodd" clip-rule="evenodd" d="M205.614 230C224.905 257.836 237.878 295.17 234.309 343.611L247.913 344.388C256.788 223.914 168.497 167.135 122.244 153.798L118 165.202C139.233 171.324 171.277 187.995 196.449 218H186.013V230H205.614Z"/>
</mask>
<path fill-rule="evenodd" clip-rule="evenodd" d="M205.614 230C224.905 257.836 237.878 295.17 234.309 343.611L247.913 344.388C256.788 223.914 168.497 167.135 122.244 153.798L118 165.202C139.233 171.324 171.277 187.995 196.449 218H186.013V230H205.614Z" fill="#53926D"/>
<path d="M234.309 343.611L232.315 343.465L232.165 345.492L234.195 345.608L234.309 343.611ZM205.614 230L207.258 228.861L206.661 228H205.614V230ZM247.913 344.388L247.799 346.385L249.763 346.497L249.908 344.535L247.913 344.388ZM122.244 153.798L122.798 151.876L121.016 151.362L120.37 153.1L122.244 153.798ZM118 165.202L116.126 164.504L115.373 166.526L117.446 167.123L118 165.202ZM196.449 218V220H200.738L197.981 216.715L196.449 218ZM186.013 218V216H184.013V218H186.013ZM186.013 230H184.013V232H186.013V230ZM236.304 343.758C239.907 294.852 226.804 257.066 207.258 228.861L203.97 231.139C223.005 258.607 235.849 295.488 232.315 343.465L236.304 343.758ZM248.027 342.391L234.423 341.615L234.195 345.608L247.799 346.385L248.027 342.391ZM121.69 155.72C167.402 168.901 254.699 225.046 245.919 344.241L249.908 344.535C258.877 222.782 169.593 165.37 122.798 151.876L121.69 155.72ZM119.874 165.899L124.118 154.495L120.37 153.1L116.126 164.504L119.874 165.899ZM197.981 216.715C172.527 186.373 140.127 169.5 118.554 163.28L117.446 167.123C138.339 173.148 170.028 189.618 194.917 219.285L197.981 216.715ZM186.013 220H196.449V216H186.013V220ZM188.013 230V218H184.013V230H188.013ZM205.614 228H186.013V232H205.614V228Z" fill="black" mask="url(#path-16-inside-1_23_51)"/>
<path d="M275.572 213.937C274.883 212.704 274.205 211.931 273.551 211.466C273.292 211.282 273.042 211.15 272.806 211.059L272.626 195.035C276.285 195.366 280.033 198.052 283.072 203.489C286.289 209.246 288.493 217.664 289.453 228.833C291.348 250.886 288.601 286.051 276.723 340.546L267.145 335.903C278.934 281.938 281.111 249.42 279.521 230.928C278.728 221.696 277.05 216.582 275.572 213.937Z" fill="#53926D" stroke="black" stroke-width="2"/>
<path d="M275.015 201.808L275.015 201.807L275.01 201.202L275.544 200.917L275.544 200.917L275.545 200.917L275.546 200.916L275.553 200.912L275.589 200.893C275.622 200.875 275.672 200.847 275.739 200.809C275.873 200.732 276.073 200.616 276.329 200.459C276.842 200.146 277.579 199.673 278.464 199.039C280.236 197.771 282.59 195.868 284.919 193.332C289.578 188.259 294.091 180.707 293.718 170.649C293.467 163.889 290.977 158.622 286.919 154.496C282.841 150.347 277.139 147.311 270.427 145.127C256.991 140.755 239.787 139.881 224.318 140.087C213.362 140.233 200.451 141.628 190.258 142.992C185.166 143.672 180.76 144.344 177.629 144.846C176.063 145.097 174.816 145.305 173.961 145.45C173.941 145.453 173.922 145.457 173.902 145.46C173.911 145.478 173.919 145.497 173.927 145.516C174.281 146.309 174.801 147.463 175.464 148.905C176.79 151.789 178.686 155.825 180.97 160.428C185.541 169.643 191.644 181.098 197.807 190.146C206.295 202.608 217.052 216.9 228.422 225.945C234.105 230.466 239.87 233.617 245.518 234.623C251.122 235.622 256.673 234.522 262.034 230.417C268.562 225.418 271.819 218.298 273.439 212.356C274.247 209.391 274.642 206.743 274.834 204.837C274.93 203.885 274.975 203.12 274.997 202.597C275.007 202.336 275.012 202.135 275.014 202.001C275.015 201.934 275.015 201.884 275.015 201.851L275.015 201.816L275.015 201.808L275.015 201.808Z" fill="#53926D" stroke="black" stroke-width="2"/>
<path d="M275.834 201.479C269.958 192.35 250.582 172.637 220.086 166.812" stroke="black" stroke-width="2"/>
<path d="M151.292 338.927C151.549 338.087 151.75 337.441 151.888 337H340.112C340.25 337.441 340.451 338.087 340.708 338.927C341.235 340.648 341.999 343.182 342.945 346.434C344.836 352.94 347.455 362.318 350.366 373.803C356.188 396.775 363.173 428.167 367.829 461.856C372.486 495.552 374.807 531.505 371.322 563.613C367.835 595.744 358.552 623.872 340.142 642.089C311.117 670.809 278.524 685.103 246 685.103C213.476 685.103 180.883 670.809 151.858 642.089C133.448 623.872 124.165 595.744 120.678 563.613C117.193 531.505 119.514 495.552 124.171 461.856C128.827 428.167 135.812 396.775 141.634 373.803C144.545 362.318 147.164 352.94 149.055 346.434C150.001 343.182 150.765 340.648 151.292 338.927Z" fill="#BFC596" stroke="black" stroke-width="2"/>
<rect x="191.854" y="672.937" width="107.281" height="25.3202" fill="#BFC596" stroke="black" stroke-width="2"/>
<path d="M195.908 224.016L195.908 224.016L195.908 224.016L195.331 223.831L195.228 223.234L195.228 223.234L195.228 223.234L195.228 223.232L195.225 223.219L195.215 223.161C195.205 223.108 195.19 223.028 195.168 222.921C195.125 222.709 195.058 222.392 194.963 221.983C194.772 221.166 194.467 219.983 194.016 218.536C193.113 215.64 191.625 211.697 189.288 207.509C184.615 199.134 176.583 189.842 163.082 185.933C154.001 183.304 145.905 184.301 138.641 187.882C131.349 191.477 124.844 197.701 119.043 205.598C107.433 221.404 98.81 243.673 92.3694 264.089C87.803 278.563 84.0322 296.146 81.4012 310.13C80.0865 317.117 79.0579 323.198 78.3581 327.532C78.0081 329.698 77.7405 331.428 77.5603 332.615C77.529 332.822 77.5004 333.011 77.4744 333.184C77.6491 333.167 77.841 333.148 78.0495 333.127C79.2457 333.005 80.9883 332.823 83.1713 332.578C87.5377 332.087 93.6649 331.345 100.706 330.342C114.798 328.334 132.512 325.282 147.094 321.104C167.147 315.359 190.633 307.416 207.498 296.369C215.928 290.847 222.625 284.6 226.439 277.539C230.231 270.518 231.203 262.639 228.101 253.714C224.328 242.863 216.314 235.437 209.174 230.707C205.609 228.345 202.282 226.668 199.848 225.583C198.631 225.041 197.639 224.647 196.955 224.389C196.613 224.261 196.347 224.166 196.17 224.104C196.132 224.092 196.099 224.08 196.07 224.07C196.029 224.056 195.995 224.045 195.969 224.036L195.921 224.02L195.91 224.017L195.908 224.016Z" fill="#53926D" stroke="black" stroke-width="2"/>
<path d="M195.714 223.162C181.175 226.922 146.878 243.822 126.002 281.352" stroke="black" stroke-width="2"/>
<path d="M135.084 163.327L135.085 163.327L135.085 163.328L135.09 163.334L135.115 163.365C135.137 163.392 135.171 163.435 135.216 163.493C135.305 163.607 135.438 163.781 135.608 164.009C135.946 164.466 136.428 165.143 136.995 166.013C138.129 167.754 139.598 170.26 140.932 173.314C143.605 179.436 145.701 187.674 143.584 196.349C141.845 203.476 137.895 208.193 132.47 211.168C127.006 214.166 119.988 215.424 112.116 215.471C96.3673 215.566 77.5759 210.814 61.951 206.068C50.6017 202.62 37.6683 197.102 27.5518 192.434C22.4981 190.102 18.1562 187.986 15.0782 186.453C13.5393 185.687 12.3167 185.066 11.4793 184.638C11.4265 184.611 11.3751 184.585 11.3253 184.559C11.362 184.518 11.3998 184.475 11.4387 184.431C12.0615 183.727 12.9722 182.704 14.1227 181.429C16.4239 178.878 19.6838 175.319 23.517 171.285C31.1893 163.211 41.1352 153.261 50.2804 145.693C63.1901 135.01 78.3032 124.053 92.6199 118.61C99.7718 115.89 106.658 114.574 112.933 115.304C119.179 116.032 124.876 118.792 129.693 124.339C136.859 132.591 138.185 142.051 137.7 149.509C137.457 153.237 136.763 156.447 136.129 158.724C135.812 159.862 135.511 160.764 135.291 161.378C135.181 161.685 135.091 161.92 135.029 162.076C134.999 162.154 134.975 162.212 134.959 162.25L134.942 162.291L134.939 162.3L134.938 162.301L135.084 163.327ZM135.084 163.327L134.701 162.859L134.938 162.302L135.084 163.327Z" fill="#53926D" stroke="black" stroke-width="2"/>
<path d="M135.488 162.546C124.33 158.838 94.596 155.371 64.9174 171.173" stroke="black" stroke-width="2"/>
<path d="M267.629 245.809L267.63 245.809L268.554 245.342L268.555 245.341L268.56 245.332L268.586 245.293C268.609 245.257 268.644 245.202 268.693 245.13C268.79 244.984 268.937 244.767 269.133 244.491C269.526 243.937 270.117 243.144 270.899 242.197C272.465 240.301 274.791 237.798 277.827 235.373C283.902 230.522 292.765 226.023 304.073 227.227C311.676 228.037 317.425 231.258 321.764 236.157C326.123 241.08 329.097 247.739 331.031 255.456C334.903 270.904 334.546 290.308 333.113 307.665C332.098 319.962 329.528 334.358 327.205 345.7C326.045 351.366 324.948 356.261 324.142 359.74C323.739 361.479 323.408 362.864 323.178 363.813C323.16 363.89 323.142 363.964 323.124 364.035C323.059 364 322.991 363.964 322.921 363.927C322.058 363.468 320.802 362.794 319.234 361.938C316.097 360.225 311.712 357.781 306.719 354.859C296.724 349.009 284.329 341.263 274.641 333.635C261.306 323.136 246.08 309.937 236.794 296.45C232.153 289.709 229.05 282.971 228.356 276.522C227.666 270.117 229.343 263.934 234.392 258.207C240.537 251.236 248.815 248.123 255.628 246.762C259.028 246.083 262.04 245.845 264.2 245.777C265.279 245.743 266.143 245.752 266.735 245.768C267.03 245.777 267.258 245.787 267.409 245.795C267.485 245.799 267.542 245.803 267.579 245.805L267.619 245.808L267.628 245.809L267.629 245.809ZM268.233 245.856L268.554 245.342L268.233 245.856Z" fill="#53926D" stroke="black" stroke-width="2"/>
<path d="M268.052 245.04C277.847 252.347 298.478 275.635 302.651 310.33" stroke="black" stroke-width="2"/>
</svg>
