<svg width="81" height="103" viewBox="0 0 81 103" fill="none" xmlns="http://www.w3.org/2000/svg">
<path d="M40.5 101.739C40.4106 101.693 40.308 101.641 40.193 101.581C39.7058 101.329 38.995 100.952 38.1072 100.457C36.3313 99.4673 33.8499 98.0063 31.0359 96.1264C25.3976 92.3596 18.4705 86.941 13.196 80.2928C6.89401 72.3493 3.77893 60.674 2.41522 48.8476C1.05493 37.0508 1.45293 25.2545 2.06195 17.1956C2.29739 14.0801 2.56397 11.5281 2.77143 9.75683C2.85378 9.05375 2.92679 8.4738 2.98482 8.03057C3.23381 8.07436 3.52294 8.12391 3.84736 8.17741C5.03077 8.37257 6.68659 8.62071 8.57849 8.83294C12.5019 9.27308 17.5462 9.5719 21.4934 8.87028C25.4187 8.17254 30.3165 6.15036 34.1728 4.34371C36.1143 3.43414 37.8161 2.56746 39.0328 1.9281C39.6414 1.60829 40.1292 1.34502 40.4657 1.16128C40.4773 1.15493 40.4887 1.14868 40.5 1.14251C40.5113 1.14868 40.5227 1.15493 40.5343 1.16128C40.8708 1.34502 41.3586 1.60829 41.9672 1.9281C43.1839 2.56746 44.8857 3.43414 46.8272 4.34371C50.6836 6.15036 55.5813 8.17254 59.5066 8.87028C63.4538 9.5719 68.4981 9.27308 72.4215 8.83294C74.3134 8.62071 75.9692 8.37257 77.1526 8.17741C77.4771 8.12391 77.7662 8.07436 78.0152 8.03057C78.0732 8.4738 78.1462 9.05375 78.2286 9.75683C78.436 11.5281 78.7026 14.0801 78.938 17.1956C79.5471 25.2545 79.9451 37.0508 78.5848 48.8476C77.2211 60.674 74.106 72.3493 67.804 80.2928C62.5295 86.941 55.6024 92.3596 49.9642 96.1264C47.1501 98.0063 44.6687 99.4673 42.8928 100.457C42.005 100.952 41.2942 101.329 40.807 101.581C40.692 101.641 40.5894 101.693 40.5 101.739ZM70.7236 18.3303L70.6511 17.3361L69.6567 17.4054C66.0678 17.6554 61.8359 17.6996 58.06 17.0284C52.9804 16.1255 47.2363 13.6833 43.3197 11.8484C42.479 11.4546 41.6814 11.0688 40.9434 10.7038L40.5 10.4844L40.0566 10.7038C39.3186 11.0688 38.521 11.4546 37.6803 11.8484C33.7637 13.6833 28.0196 16.1255 22.9401 17.0284C19.1641 17.6996 14.9322 17.6554 11.3433 17.4054L10.3489 17.3361L10.2764 18.3303C9.9369 22.9887 9.67996 28.8636 9.81046 35.2012C9.9641 42.6628 10.6513 50.5461 12.2747 57.7427C13.9166 65.0215 16.3816 70.9864 19.6764 75.1393C24.1979 80.8386 30.3407 85.701 35.6294 89.2342C37.2282 90.3023 38.7093 91.2228 39.9893 91.9832L40.5 92.2865L41.0107 91.9832C42.2907 91.2228 43.7718 90.3023 45.3706 89.2342C50.6593 85.701 56.8021 80.8386 61.3237 75.1393C64.6184 70.9864 67.0834 65.0215 68.7253 57.7427C70.3487 50.5461 71.0359 42.6628 71.1895 35.2012C71.32 28.8636 71.0631 22.9887 70.7236 18.3303Z" fill="#4DC4CF" stroke="black" stroke-width="2"/>
<mask id="path-2-inside-1_182_64" fill="white">
<path fill-rule="evenodd" clip-rule="evenodd" d="M40.5001 5.37067e-05C40.5 1.792e-05 40.5 0 40.5 0C40.5 0 28.89 6.53985 21.3184 7.88571C17.5213 8.56065 12.598 8.27759 8.68997 7.83918C4.94789 7.41938 2.13673 6.85714 2.13673 6.85714C2.13673 6.85714 1.53801 10.8584 1.0648 17.1202C-0.158176 33.3032 -0.542812 64.5844 12.4126 80.9143C23.1434 94.44 40.5 102.857 40.5 102.857C40.5 102.857 40.5 102.857 40.5001 102.857V91.1233C40.5001 91.1234 40.5 91.1234 40.5 91.1234C39.2333 90.371 37.7673 89.4598 36.1849 88.4027C30.9384 84.8976 24.8903 80.1024 20.4598 74.5178C17.294 70.5274 14.8745 64.7235 13.2502 57.5226C11.6464 50.413 10.963 42.6013 10.8102 35.1806C10.6805 28.8812 10.9359 23.0384 11.2738 18.403C14.8957 18.6553 19.2215 18.7051 23.1151 18.013C28.3337 17.0854 34.1796 14.5928 38.1046 12.754C38.9523 12.3568 39.7564 11.9679 40.5 11.6001C40.5 11.6001 40.5001 11.6001 40.5001 11.6001V5.37067e-05Z"/>
</mask>
<path fill-rule="evenodd" clip-rule="evenodd" d="M40.5001 5.37067e-05C40.5 1.792e-05 40.5 0 40.5 0C40.5 0 28.89 6.53985 21.3184 7.88571C17.5213 8.56065 12.598 8.27759 8.68997 7.83918C4.94789 7.41938 2.13673 6.85714 2.13673 6.85714C2.13673 6.85714 1.53801 10.8584 1.0648 17.1202C-0.158176 33.3032 -0.542812 64.5844 12.4126 80.9143C23.1434 94.44 40.5 102.857 40.5 102.857C40.5 102.857 40.5 102.857 40.5001 102.857V91.1233C40.5001 91.1234 40.5 91.1234 40.5 91.1234C39.2333 90.371 37.7673 89.4598 36.1849 88.4027C30.9384 84.8976 24.8903 80.1024 20.4598 74.5178C17.294 70.5274 14.8745 64.7235 13.2502 57.5226C11.6464 50.413 10.963 42.6013 10.8102 35.1806C10.6805 28.8812 10.9359 23.0384 11.2738 18.403C14.8957 18.6553 19.2215 18.7051 23.1151 18.013C28.3337 17.0854 34.1796 14.5928 38.1046 12.754C38.9523 12.3568 39.7564 11.9679 40.5 11.6001C40.5 11.6001 40.5001 11.6001 40.5001 11.6001V5.37067e-05Z" fill="#FC4B3B"/>
<path d="M40.5001 5.37067e-05H42.5001V-1.18058L41.4664 -1.75102L40.5001 5.37067e-05ZM40.5 0L41.5127 -1.72465L40.5207 -2.30715L39.5184 -1.74256L40.5 0ZM21.3184 7.88571L21.6684 9.85485L21.3184 7.88571ZM8.68997 7.83918L8.467 9.82671H8.467L8.68997 7.83918ZM2.13673 6.85714L2.52897 4.89598L0.469553 4.48409L0.158753 6.56117L2.13673 6.85714ZM1.0648 17.1202L3.05911 17.2709L1.0648 17.1202ZM12.4126 80.9143L13.9794 79.6712L12.4126 80.9143ZM40.5 102.857L39.6273 104.657L40.5135 105.086L41.3944 104.646L40.5 102.857ZM40.5001 102.857L41.3517 104.667L42.5001 104.126V102.857H40.5001ZM40.5001 91.1233H42.5001V87.8873L39.6057 89.3345L40.5001 91.1233ZM40.5 91.1234L39.4786 92.8429L40.4176 93.4007L41.3944 92.9123L40.5 91.1234ZM36.1849 88.4027L35.0739 90.0657L36.1849 88.4027ZM20.4598 74.5178L18.893 75.7608L20.4598 74.5178ZM13.2502 57.5226L11.2992 57.9627L13.2502 57.5226ZM10.8102 35.1806L8.81067 35.2218L10.8102 35.1806ZM11.2738 18.403L11.4128 16.4078L9.42398 16.2692L9.27907 18.2576L11.2738 18.403ZM23.1151 18.013L22.765 16.0439L23.1151 18.013ZM38.1046 12.754L38.953 14.5651L38.1046 12.754ZM40.5 11.6001L41.3944 9.81123L40.5048 9.36641L39.6132 9.80742L40.5 11.6001ZM40.5001 11.6001L39.6057 13.389L42.5001 14.8362V11.6001H40.5001ZM41.4664 -1.75102C41.4738 -1.74693 41.4814 -1.74269 41.4891 -1.7383C41.493 -1.7361 41.4969 -1.73387 41.5008 -1.7316C41.5028 -1.73046 41.5047 -1.72931 41.5067 -1.72815C41.5077 -1.72757 41.5087 -1.72699 41.5097 -1.72641C41.5102 -1.72612 41.5107 -1.72582 41.5112 -1.72553C41.5115 -1.72538 41.5117 -1.72524 41.512 -1.72509C41.5121 -1.72501 41.5122 -1.72494 41.5123 -1.72487C41.5124 -1.72483 41.5125 -1.72479 41.5125 -1.72476C41.5126 -1.72474 41.5126 -1.72471 41.5126 -1.7247C41.5127 -1.72467 41.5127 -1.72465 40.5 0C39.4873 1.72465 39.4873 1.72467 39.4874 1.7247C39.4874 1.72471 39.4874 1.72474 39.4875 1.72476C39.4875 1.72479 39.4876 1.72483 39.4877 1.72487C39.4878 1.72494 39.4879 1.72501 39.488 1.72509C39.4883 1.72524 39.4885 1.72538 39.4888 1.72553C39.4893 1.72582 39.4898 1.72612 39.4903 1.72641C39.4913 1.72699 39.4923 1.72757 39.4933 1.72815C39.4953 1.72931 39.4973 1.73046 39.4992 1.7316C39.5032 1.73388 39.5071 1.73612 39.511 1.73833C39.5187 1.74273 39.5263 1.747 39.5338 1.75112L41.4664 -1.75102ZM40.5 0C39.5184 -1.74256 39.5185 -1.74263 39.5186 -1.74267C39.5186 -1.74265 39.5186 -1.74267 39.5186 -1.74263C39.5184 -1.74255 39.5181 -1.74238 39.5176 -1.7421C39.5166 -1.74156 39.515 -1.74062 39.5126 -1.73929C39.5079 -1.73664 39.5004 -1.73244 39.4902 -1.72675C39.4698 -1.71535 39.4386 -1.69794 39.3971 -1.67488C39.314 -1.62877 39.1896 -1.56008 39.0277 -1.47165C38.7038 -1.29477 38.2302 -1.03914 37.6373 -0.727553C36.4504 -0.103857 34.7905 0.741398 32.9001 1.62706C29.0659 3.42334 24.4751 5.29326 20.9684 5.91658L21.6684 9.85485C25.7333 9.13231 30.7333 7.05937 34.597 5.24926C36.5555 4.33172 38.2714 3.4579 39.498 2.81331C40.1118 2.49076 40.6044 2.22495 40.945 2.03893C41.1153 1.9459 41.2477 1.87278 41.3384 1.82243C41.3838 1.79726 41.4187 1.77778 41.4427 1.76435C41.4547 1.75763 41.464 1.75243 41.4705 1.74878C41.4738 1.74696 41.4763 1.74553 41.4782 1.74449C41.4791 1.74397 41.4798 1.74355 41.4804 1.74322C41.4807 1.74306 41.481 1.7429 41.4811 1.74282C41.4814 1.74268 41.4816 1.74256 40.5 0ZM20.9684 5.91658C17.4716 6.53813 12.7902 6.2866 8.91294 5.85164L8.467 9.82671C12.4058 10.2686 17.571 10.5832 21.6684 9.85485L20.9684 5.91658ZM8.91294 5.85164C7.0836 5.64643 5.48031 5.40618 4.33549 5.21739C3.76362 5.12308 3.30754 5.04185 2.99648 4.98459C2.84098 4.95597 2.72182 4.93336 2.64266 4.91813C2.60308 4.91052 2.57351 4.90475 2.55441 4.901C2.54486 4.89913 2.53792 4.89776 2.53367 4.89691C2.53154 4.89649 2.53007 4.8962 2.52929 4.89605C2.5289 4.89597 2.52867 4.89592 2.52862 4.89591C2.52859 4.89591 2.52861 4.89591 2.52867 4.89592C2.5287 4.89593 2.52877 4.89594 2.52879 4.89595C2.52887 4.89596 2.52897 4.89598 2.13673 6.85714C1.7445 8.8183 1.74461 8.81833 1.74474 8.81835C1.7448 8.81836 1.74494 8.81839 1.74506 8.81842C1.74528 8.81846 1.74556 8.81852 1.74587 8.81858C1.7465 8.8187 1.74731 8.81886 1.74828 8.81906C1.75022 8.81945 1.75285 8.81997 1.75616 8.82062C1.76276 8.82193 1.77207 8.82377 1.78402 8.82612C1.80793 8.83081 1.84241 8.83753 1.88701 8.84611C1.9762 8.86327 2.1059 8.88786 2.27241 8.91851C2.60538 8.9798 3.08597 9.06536 3.68465 9.16408C4.88093 9.36136 6.55425 9.61213 8.467 9.82671L8.91294 5.85164ZM2.13673 6.85714C0.158753 6.56117 0.158735 6.5613 0.158714 6.56144C0.158704 6.5615 0.158681 6.56166 0.158661 6.56179C0.158621 6.56206 0.158571 6.56239 0.158513 6.56278C0.158397 6.56356 0.158244 6.56459 0.158055 6.56585C0.157678 6.56839 0.157158 6.5719 0.156497 6.57637C0.155174 6.58532 0.153289 6.59813 0.150863 6.61475C0.146012 6.64799 0.138997 6.69647 0.129997 6.75976C0.111998 6.88635 0.0860551 7.07222 0.0535872 7.31395C-0.0113454 7.7974 -0.102395 8.50445 -0.208203 9.40786C-0.419786 11.2144 -0.690575 13.8077 -0.929516 16.9695L3.05911 17.2709C3.29338 14.1709 3.55856 11.6327 3.76464 9.87316C3.86767 8.99352 3.95587 8.30889 4.01799 7.84642C4.04905 7.61519 4.07357 7.43954 4.09017 7.32284C4.09846 7.2645 4.10477 7.2209 4.10892 7.19247C4.111 7.17825 4.11253 7.16783 4.1135 7.16125C4.11399 7.15797 4.11434 7.15564 4.11454 7.15428C4.11464 7.1536 4.1147 7.15316 4.11473 7.15297C4.11475 7.15287 4.11475 7.15283 4.11475 7.15286C4.11475 7.15287 4.11474 7.15293 4.11474 7.15294C4.11473 7.15302 4.11471 7.15311 2.13673 6.85714ZM-0.929516 16.9695C-1.54593 25.1262 -1.95563 37.1316 -0.565029 49.1913C0.818752 61.1918 4.01667 73.5494 10.8458 82.1573L13.9794 79.6712C7.85313 71.9493 4.76565 60.5014 3.40864 48.7331C2.05845 37.0239 2.45255 25.2972 3.05911 17.2709L-0.929516 16.9695ZM10.8458 82.1573C16.393 89.1494 23.6043 94.7694 29.3693 98.6209C32.262 100.553 34.8139 102.056 36.6466 103.078C37.5634 103.589 38.3015 103.98 38.8137 104.245C39.0698 104.378 39.2696 104.479 39.4072 104.548C39.4759 104.582 39.5292 104.609 39.5661 104.627C39.5846 104.636 39.5989 104.643 39.6092 104.648C39.6143 104.65 39.6184 104.652 39.6214 104.654C39.6229 104.655 39.6242 104.655 39.6251 104.656C39.6256 104.656 39.6262 104.656 39.6264 104.656C39.6269 104.657 39.6273 104.657 40.5 102.857C41.3727 101.058 41.373 101.058 41.3732 101.058C41.3732 101.058 41.3733 101.058 41.3733 101.058C41.3732 101.058 41.3729 101.058 41.3723 101.057C41.3711 101.057 41.3689 101.056 41.3656 101.054C41.3591 101.051 41.3484 101.046 41.3337 101.038C41.3043 101.024 41.2587 101.001 41.1978 100.971C41.0758 100.91 40.8922 100.817 40.6528 100.693C40.1739 100.445 39.4722 100.073 38.5941 99.5837C36.8371 98.6043 34.3791 97.1573 31.5914 95.2948C25.9954 91.5563 19.163 86.2049 13.9794 79.6712L10.8458 82.1573ZM40.5 102.857C41.3944 104.646 41.3944 104.646 41.3943 104.646C41.3943 104.646 41.3943 104.646 41.3943 104.646C41.3942 104.646 41.3941 104.646 41.3941 104.646C41.394 104.646 41.3938 104.646 41.3937 104.646C41.3935 104.646 41.3933 104.647 41.393 104.647C41.3926 104.647 41.3921 104.647 41.3916 104.647C41.3907 104.648 41.3898 104.648 41.3889 104.649C41.387 104.65 41.3852 104.651 41.3834 104.651C41.3797 104.653 41.3761 104.655 41.3726 104.657C41.3655 104.66 41.3585 104.664 41.3517 104.667L39.6485 101.047C39.6416 101.051 39.6346 101.054 39.6275 101.058C39.6239 101.059 39.6203 101.061 39.6166 101.063C39.6148 101.064 39.613 101.065 39.6111 101.066C39.6102 101.066 39.6093 101.066 39.6084 101.067C39.6079 101.067 39.6074 101.067 39.607 101.068C39.6067 101.068 39.6065 101.068 39.6063 101.068C39.6062 101.068 39.606 101.068 39.6059 101.068C39.6059 101.068 39.6058 101.068 39.6058 101.068C39.6057 101.068 39.6057 101.068 39.6057 101.068C39.6056 101.068 39.6056 101.068 40.5 102.857ZM42.5001 102.857V91.1233H38.5001V102.857H42.5001ZM41.3944 92.9123C41.4165 92.9012 41.4354 92.8913 41.4502 92.8833C41.4651 92.8752 41.4776 92.8682 41.4867 92.8631C41.4958 92.8579 41.5031 92.8536 41.5074 92.8512C41.5096 92.8499 41.5114 92.8488 41.5124 92.8482C41.513 92.8479 41.5134 92.8476 41.5137 92.8475C41.5138 92.8474 41.5139 92.8473 41.514 92.8473C41.514 92.8473 41.514 92.8473 41.5141 92.8473C41.5141 92.8473 41.5141 92.8472 41.5141 92.8472C41.5141 92.8472 41.5141 92.8472 41.5141 92.8472C41.5141 92.8472 41.5141 92.8472 41.5141 92.8472C41.5147 92.8469 41.5113 92.8489 41.5074 92.8512C41.5032 92.8536 41.4959 92.8579 41.4868 92.863C41.4776 92.8682 41.4652 92.8752 41.4503 92.8832C41.4354 92.8912 41.4166 92.9012 41.3945 92.9122L39.6057 89.3345C39.5836 89.3455 39.5647 89.3555 39.5499 89.3635C39.535 89.3715 39.5225 89.3785 39.5134 89.3837C39.5043 89.3889 39.497 89.3931 39.4927 89.3956C39.4905 89.3969 39.4887 89.3979 39.4877 89.3985C39.4871 89.3988 39.4867 89.3991 39.4864 89.3993C39.4863 89.3993 39.4862 89.3994 39.4861 89.3994C39.4861 89.3995 39.4861 89.3995 39.486 89.3995C39.486 89.3995 39.486 89.3995 39.486 89.3995C39.486 89.3995 39.486 89.3995 39.486 89.3995C39.486 89.3995 39.486 89.3995 39.486 89.3995C39.4854 89.3998 39.4888 89.3979 39.4927 89.3956C39.4969 89.3931 39.5042 89.3889 39.5133 89.3837C39.5225 89.3785 39.5349 89.3716 39.5498 89.3635C39.5647 89.3555 39.5835 89.3456 39.6056 89.3345L41.3944 92.9123ZM35.0739 90.0657C36.689 91.1447 38.1853 92.0747 39.4786 92.8429L41.5214 89.4039C40.2814 88.6673 38.8456 87.7749 37.2959 86.7397L35.0739 90.0657ZM18.893 75.7608C23.5055 81.5747 29.7431 86.5043 35.0739 90.0657L37.2959 86.7397C32.1336 83.2909 26.2752 78.63 22.0266 73.2747L18.893 75.7608ZM11.2992 57.9627C12.9587 65.3195 15.4692 71.4453 18.893 75.7608L22.0266 73.2747C19.1187 69.6095 16.7903 64.1274 15.2011 57.0825L11.2992 57.9627ZM8.81067 35.2218C8.96515 42.7242 9.65619 50.6792 11.2992 57.9627L15.2011 57.0825C13.6366 50.1468 12.9609 42.4785 12.8098 35.1394L8.81067 35.2218ZM9.27907 18.2576C8.93787 22.9391 8.67938 28.8459 8.81067 35.2218L12.8098 35.1394C12.6817 28.9166 12.934 23.1378 13.2685 18.5483L9.27907 18.2576ZM22.765 16.0439C19.1067 16.6941 14.9686 16.6555 11.4128 16.4078L11.1348 20.3981C14.8228 20.655 19.3362 20.716 23.4651 19.9821L22.765 16.0439ZM37.2561 10.9429C33.3477 12.7739 27.7055 15.1657 22.765 16.0439L23.4651 19.9821C28.9619 19.0051 35.0116 16.4116 38.953 14.5651L37.2561 10.9429ZM39.6132 9.80742C38.8809 10.1697 38.0897 10.5524 37.2561 10.9429L38.953 14.5651C39.8149 14.1613 40.6318 13.7662 41.3868 13.3927L39.6132 9.80742ZM41.3945 9.81128C41.3873 9.80768 41.3816 9.80485 41.3784 9.80329C41.3767 9.80247 41.3753 9.80181 41.3745 9.80141C41.3741 9.80121 41.3738 9.80105 41.3736 9.80095C41.3735 9.8009 41.3734 9.80086 41.3733 9.80083C41.3733 9.80082 41.3733 9.80081 41.3733 9.8008C41.3733 9.8008 41.3733 9.8008 41.3733 9.8008C41.3733 9.8008 41.3732 9.80079 41.3732 9.80079C41.3732 9.80079 41.3732 9.80079 41.3732 9.80079C41.3728 9.80057 41.3754 9.80181 41.3783 9.80327C41.3815 9.80482 41.3873 9.80764 41.3944 9.81123L39.6056 13.3889C39.6128 13.3925 39.6185 13.3954 39.6217 13.3969C39.6234 13.3977 39.6248 13.3984 39.6256 13.3988C39.626 13.399 39.6263 13.3992 39.6265 13.3993C39.6266 13.3993 39.6267 13.3994 39.6268 13.3994C39.6268 13.3994 39.6268 13.3994 39.6268 13.3994C39.6268 13.3994 39.6268 13.3994 39.6269 13.3994C39.6269 13.3994 39.6269 13.3994 39.6269 13.3994C39.6269 13.3994 39.6269 13.3994 39.6269 13.3994C39.6273 13.3996 39.6248 13.3984 39.6218 13.3969C39.6186 13.3954 39.6128 13.3926 39.6057 13.389L41.3945 9.81128ZM42.5001 11.6001V5.37067e-05H38.5001V11.6001H42.5001Z" fill="black" mask="url(#path-2-inside-1_182_64)"/>
<path d="M34.7778 47.1064C34.7778 46.663 34.4859 46.2726 34.0606 46.1472C29.0124 44.6586 25.3296 39.9879 25.3296 34.4596C25.3296 27.731 30.7842 22.2764 37.5129 22.2764C44.2415 22.2764 49.6961 27.731 49.6961 34.4596C49.6961 40.2133 45.7068 45.0377 40.342 46.313C39.8914 46.4201 39.5733 46.8227 39.5733 47.2859V57.7614C39.5733 58.3137 40.021 58.7614 40.5733 58.7614H49.0208C50.3451 58.7614 51.4186 59.8349 51.4186 61.1592C51.4186 62.4834 50.3451 63.5569 49.0208 63.5569H40.5733C40.021 63.5569 39.5733 64.0047 39.5733 64.5569V65.8828C39.5733 66.4351 40.021 66.8828 40.5733 66.8828H49.0208C50.3451 66.8828 51.4186 67.9563 51.4186 69.2806C51.4186 70.6048 50.3451 71.6783 49.0208 71.6783H40.5733C40.021 71.6783 39.5733 72.126 39.5733 72.6783V76.6379C39.5733 77.9622 38.4998 79.0357 37.1756 79.0357C35.8513 79.0357 34.7778 77.9622 34.7778 76.6379V47.1064ZM37.5129 27.0719C33.4327 27.0719 30.1251 30.3795 30.1251 34.4596C30.1251 38.5398 33.4327 41.8474 37.5129 41.8474C41.593 41.8474 44.9006 38.5398 44.9006 34.4596C44.9006 30.3795 41.593 27.0719 37.5129 27.0719Z" fill="#542234" stroke="black" stroke-width="2" stroke-linecap="round" stroke-linejoin="round"/>
<mask id="path-5-inside-2_182_64" fill="white">
<path fill-rule="evenodd" clip-rule="evenodd" d="M33.7646 47.1024C33.7691 47.1037 33.7736 47.105 33.7781 47.1064V76.6379C33.7781 78.5145 35.2993 80.0357 37.1759 80.0357C39.0524 80.0357 40.5736 78.5145 40.5736 76.6379V72.6783H49.0211C50.8976 72.6783 52.4189 71.1571 52.4189 69.2806C52.4189 67.404 50.8976 65.8828 49.0211 65.8828H40.5736V64.5569H49.0211C50.8976 64.5569 52.4189 63.0357 52.4189 61.1592C52.4189 59.2827 50.8976 57.7614 49.0211 57.7614H40.5736V47.2859C46.3787 45.9059 50.6964 40.687 50.6964 34.4596C50.6964 27.1787 44.7941 21.2764 37.5132 21.2764C36.2109 21.2764 34.9528 21.4652 33.7646 21.8169V29.2868C34.8175 28.5226 36.1127 28.0719 37.5132 28.0719C41.041 28.0719 43.9009 30.9318 43.9009 34.4596C43.9009 37.9875 41.041 40.8474 37.5132 40.8474C36.1127 40.8474 34.8175 40.3967 33.7646 39.6325V47.1024Z"/>
</mask>
<path fill-rule="evenodd" clip-rule="evenodd" d="M33.7646 47.1024C33.7691 47.1037 33.7736 47.105 33.7781 47.1064V76.6379C33.7781 78.5145 35.2993 80.0357 37.1759 80.0357C39.0524 80.0357 40.5736 78.5145 40.5736 76.6379V72.6783H49.0211C50.8976 72.6783 52.4189 71.1571 52.4189 69.2806C52.4189 67.404 50.8976 65.8828 49.0211 65.8828H40.5736V64.5569H49.0211C50.8976 64.5569 52.4189 63.0357 52.4189 61.1592C52.4189 59.2827 50.8976 57.7614 49.0211 57.7614H40.5736V47.2859C46.3787 45.9059 50.6964 40.687 50.6964 34.4596C50.6964 27.1787 44.7941 21.2764 37.5132 21.2764C36.2109 21.2764 34.9528 21.4652 33.7646 21.8169V29.2868C34.8175 28.5226 36.1127 28.0719 37.5132 28.0719C41.041 28.0719 43.9009 30.9318 43.9009 34.4596C43.9009 37.9875 41.041 40.8474 37.5132 40.8474C36.1127 40.8474 34.8175 40.3967 33.7646 39.6325V47.1024Z" fill="#53926D"/>
<path d="M33.7646 47.1024H31.7646C31.7646 47.9882 32.3474 48.7686 33.1968 49.0201L33.7646 47.1024ZM33.7781 47.1064H35.7781C35.7781 46.2195 35.1941 45.4386 34.3435 45.1879L33.7781 47.1064ZM40.5736 72.6783V70.6783C39.469 70.6783 38.5736 71.5738 38.5736 72.6783H40.5736ZM40.5736 65.8828H38.5736C38.5736 66.9874 39.469 67.8828 40.5736 67.8828V65.8828ZM40.5736 64.5569V62.5569C39.469 62.5569 38.5736 63.4524 38.5736 64.5569H40.5736ZM40.5736 57.7614H38.5736C38.5736 58.866 39.469 59.7614 40.5736 59.7614V57.7614ZM40.5736 47.2859L40.1111 45.3401C39.2098 45.5543 38.5736 46.3595 38.5736 47.2859H40.5736ZM33.7646 21.8169L33.1969 19.8992C32.3475 20.1507 31.7646 20.931 31.7646 21.8169H33.7646ZM33.7646 29.2868H31.7646C31.7646 30.0387 32.1864 30.7271 32.8563 31.0686C33.5262 31.4101 34.331 31.3471 34.9395 30.9053L33.7646 29.2868ZM33.7646 39.6325L34.9395 38.014C34.331 37.5722 33.5262 37.5091 32.8563 37.8507C32.1864 38.1922 31.7646 38.8806 31.7646 39.6325H33.7646ZM33.1968 49.0201C33.2018 49.0216 33.2072 49.0231 33.2127 49.0248L34.3435 45.1879C34.34 45.1869 34.3364 45.1858 34.3325 45.1847L33.1968 49.0201ZM31.7781 47.1064V76.6379H35.7781V47.1064H31.7781ZM31.7781 76.6379C31.7781 79.619 34.1948 82.0357 37.1759 82.0357V78.0357C36.4039 78.0357 35.7781 77.4099 35.7781 76.6379H31.7781ZM37.1759 82.0357C40.1569 82.0357 42.5736 79.619 42.5736 76.6379H38.5736C38.5736 77.4099 37.9478 78.0357 37.1759 78.0357V82.0357ZM42.5736 76.6379V72.6783H38.5736V76.6379H42.5736ZM40.5736 74.6783H49.0211V70.6783H40.5736V74.6783ZM49.0211 74.6783C52.0022 74.6783 54.4189 72.2617 54.4189 69.2806H50.4189C50.4189 70.0525 49.7931 70.6783 49.0211 70.6783V74.6783ZM54.4189 69.2806C54.4189 66.2995 52.0022 63.8828 49.0211 63.8828V67.8828C49.7931 67.8828 50.4189 68.5086 50.4189 69.2806H54.4189ZM49.0211 63.8828H40.5736V67.8828H49.0211V63.8828ZM42.5736 65.8828V64.5569H38.5736V65.8828H42.5736ZM40.5736 66.5569H49.0211V62.5569H40.5736V66.5569ZM49.0211 66.5569C52.0022 66.5569 54.4189 64.1403 54.4189 61.1592H50.4189C50.4189 61.9312 49.7931 62.5569 49.0211 62.5569V66.5569ZM54.4189 61.1592C54.4189 58.1781 52.0022 55.7614 49.0211 55.7614V59.7614C49.7931 59.7614 50.4189 60.3872 50.4189 61.1592H54.4189ZM49.0211 55.7614H40.5736V59.7614H49.0211V55.7614ZM42.5736 57.7614V47.2859H38.5736V57.7614H42.5736ZM41.0362 49.2316C47.722 47.6423 52.6964 41.6343 52.6964 34.4596H48.6964C48.6964 39.7396 45.0354 44.1694 40.1111 45.3401L41.0362 49.2316ZM52.6964 34.4596C52.6964 26.0742 45.8986 19.2764 37.5132 19.2764V23.2764C43.6895 23.2764 48.6964 28.2833 48.6964 34.4596H52.6964ZM37.5132 19.2764C36.0167 19.2764 34.5674 19.4935 33.1969 19.8992L34.3324 23.7346C35.3382 23.4369 36.4052 23.2764 37.5132 23.2764V19.2764ZM31.7646 21.8169V29.2868H35.7646V21.8169H31.7646ZM34.9395 30.9053C35.6623 30.3807 36.5487 30.0719 37.5132 30.0719V26.0719C35.6767 26.0719 33.9727 26.6644 32.5897 27.6683L34.9395 30.9053ZM37.5132 30.0719C39.9365 30.0719 41.9009 32.0363 41.9009 34.4596H45.9009C45.9009 29.8272 42.1456 26.0719 37.5132 26.0719V30.0719ZM41.9009 34.4596C41.9009 36.8829 39.9365 38.8474 37.5132 38.8474V42.8474C42.1456 42.8474 45.9009 39.0921 45.9009 34.4596H41.9009ZM37.5132 38.8474C36.5487 38.8474 35.6623 38.5386 34.9395 38.014L32.5898 41.251C33.9727 42.2549 35.6767 42.8474 37.5132 42.8474V38.8474ZM31.7646 39.6325V47.1024H35.7646V39.6325H31.7646Z" fill="black" mask="url(#path-5-inside-2_182_64)"/>
</svg>
