<svg width="32" height="42" viewBox="0 0 32 42" fill="none" xmlns="http://www.w3.org/2000/svg">
<path fill-rule="evenodd" clip-rule="evenodd" d="M15.9523 0C15.9523 0 11.3221 2.60814 8.30252 3.14488C6.78822 3.41405 4.82476 3.30116 3.26622 3.12632C1.77385 2.9589 0.652741 2.73468 0.652741 2.73468C0.652741 2.73468 0.413965 4.33042 0.225245 6.82766C-0.262485 13.2816 -0.415881 25.7567 4.75084 32.2692C9.03034 37.6634 15.9523 41.0202 15.9523 41.0202C15.9523 41.0202 22.8742 37.6634 27.1537 32.2692C32.3205 25.7567 32.1671 13.2816 31.6793 6.82766C31.4906 4.33042 31.2518 2.73468 31.2518 2.73468C31.2518 2.73468 30.1307 2.9589 28.6384 3.12632C27.0798 3.30116 25.1164 3.41405 23.6021 3.14488C20.5824 2.60814 15.9523 0 15.9523 0ZM27.6079 7.33923C26.1635 7.43986 24.4383 7.45972 22.8855 7.18371C20.8043 6.81377 18.4729 5.8197 16.9076 5.08638C16.5695 4.928 16.2489 4.7729 15.9523 4.6262C15.6557 4.7729 15.3351 4.928 14.997 5.08638C13.4317 5.8197 11.1003 6.81377 9.01905 7.18371C7.46626 7.45972 5.74111 7.43986 4.29666 7.33923C4.16193 9.1879 4.06007 11.5181 4.1118 14.0303C4.17274 16.9897 4.44527 20.1051 5.08486 22.9405C5.73266 25.8122 6.69755 28.1268 7.9601 29.7182C9.72705 31.9454 12.139 33.8578 14.2314 35.2556C14.8625 35.6772 15.4471 36.0406 15.9523 36.3407C16.4574 36.0406 17.0421 35.6772 17.6732 35.2556C19.7655 33.8578 22.1775 31.9454 23.9445 29.7182C25.207 28.1268 26.1719 25.8122 26.8197 22.9405C27.4593 20.1051 27.7318 16.9897 27.7928 14.0303C27.8445 11.5181 27.7427 9.1879 27.6079 7.33923Z" fill="#4DC4CF"/>
<path fill-rule="evenodd" clip-rule="evenodd" d="M15.953 0.000236174C15.9527 7.89845e-05 15.9526 0 15.9526 0C15.9526 0 11.3224 2.60814 8.30279 3.14488C6.7885 3.41405 4.82504 3.30116 3.26649 3.12632C1.77412 2.9589 0.653016 2.73468 0.653016 2.73468C0.653016 2.73468 0.41424 4.33042 0.22552 6.82766C-0.262211 13.2816 -0.415606 25.7567 4.75111 32.2692C9.03061 37.6634 15.9526 41.0202 15.9526 41.0202C15.9526 41.0202 15.9527 41.0201 15.953 41.02V36.3404C15.9528 36.3405 15.9527 36.3406 15.9526 36.3407C15.4474 36.0406 14.8628 35.6772 14.2317 35.2556C12.1393 33.8578 9.72732 31.9454 7.96037 29.7182C6.69783 28.1268 5.73293 25.8122 5.08513 22.9405C4.44554 20.1051 4.17301 16.9897 4.11208 14.0303C4.06035 11.5181 4.1622 9.1879 4.29694 7.33923C5.74139 7.43986 7.46653 7.45972 9.01932 7.18371C11.1006 6.81377 13.432 5.8197 14.9973 5.08638C15.3353 4.928 15.656 4.7729 15.9526 4.6262C15.9527 4.62627 15.9528 4.62634 15.953 4.62641V0.000236174Z" fill="#FC4B3B"/>
<path fill-rule="evenodd" clip-rule="evenodd" d="M12.214 13.7451C12.214 12.3382 13.3546 11.1976 14.7615 11.1976C16.1685 11.1976 17.309 12.3382 17.309 13.7451C17.309 15.1521 16.1685 16.2926 14.7615 16.2926C13.3546 16.2926 12.214 15.1521 12.214 13.7451ZM14.7615 8.48755C11.8578 8.48755 9.50394 10.8415 9.50394 13.7451C9.50394 16.1314 11.0937 18.1464 13.272 18.7887V30.5661C13.272 31.3145 13.8786 31.9212 14.627 31.9212C15.3754 31.9212 15.9821 31.3145 15.9821 30.5661V28.987H19.351C20.0994 28.987 20.706 28.3804 20.706 27.632C20.706 26.8836 20.0994 26.2769 19.351 26.2769H15.9821V25.7482H19.351C20.0994 25.7482 20.706 25.1415 20.706 24.3931C20.706 23.6447 20.0994 23.0381 19.351 23.0381H15.9821V18.8603C18.2972 18.31 20.0191 16.2286 20.0191 13.7451C20.0191 10.8415 17.6652 8.48755 14.7615 8.48755Z" fill="#542234"/>
<path fill-rule="evenodd" clip-rule="evenodd" d="M13.2661 18.788C13.2675 18.7884 13.2688 18.7888 13.2702 18.7892V30.5666C13.2702 31.315 13.8769 31.9217 14.6252 31.9217C15.3736 31.9217 15.9803 31.315 15.9803 30.5666V28.9875H19.3492C20.0976 28.9875 20.7043 28.3808 20.7043 27.6325C20.7043 26.8841 20.0976 26.2774 19.3492 26.2774H15.9803V25.7486H19.3492C20.0976 25.7486 20.7043 25.142 20.7043 24.3936C20.7043 23.6452 20.0976 23.0386 19.3492 23.0386H15.9803V18.8608C18.2954 18.3105 20.0173 16.2291 20.0173 13.7456C20.0173 10.8419 17.6634 8.48804 14.7598 8.48804C14.2409 8.48804 13.7396 8.5632 13.2661 8.70323V11.6817C13.6858 11.3775 14.2018 11.1981 14.7598 11.1981C16.1667 11.1981 17.3072 12.3387 17.3072 13.7456C17.3072 15.1526 16.1667 16.2931 14.7598 16.2931C14.2018 16.2931 13.6858 16.1137 13.2661 15.8095V18.788Z" fill="#53926D"/>
</svg>
